{"title":"I.Saw.the.Devil.2010.PROPER.BDRip.XviD-EXViD","uid":6634475,"size":1529670545,"categoryP":"video","categoryS":"movies","magnet":"?xt=urn:btih:7a94ecc8b009ba94bef86b354a63c4e2efd20279&amp;dn=I.Saw.the.Devil.2010.PROPER.BDRip.XviD-EXViD&amp;tr=udp%3A%2F%2Ftracker.openbittorrent.com%3A80&amp;tr=udp%3A%2F%2Fopen.demonii.com%3A1337&amp;tr=udp%3A%2F%2Ftracker.coppersurfer.tk%3A6969&amp;tr=udp%3A%2F%2Fexodus.desync.com%3A6969","seeders":0,"leechers":0,"uploader":"sceneline","files":110,"time":1314503933,"description":"- &lt;a href=&quot;\nhttp://www.Speed.Cd&quot; rel=&quot;nofollow&quot; target=&quot;_NEW&quot;&gt;\nhttp://www.Speed.Cd&lt;/a&gt; \n       &lt;a href=&quot;\nhttp://www.Speed.Cd&quot; rel=&quot;nofollow&quot; target=&quot;_NEW&quot;&gt;\nhttp://www.Speed.Cd&lt;/a&gt;      fast  and The Hottest Private Tracker on the net\n\n(((--Submit for invite!!--)))\n\nPlease Seed back to make the speed Faster!!!\n\n------------------nfo--------------------------\n-                                                                                                     \n       \n     \n     \n       \n       \n     \n     \n                                         \n                                         \n                EXVID                    \n                                         \n         \n                                         \n         Filled the Archives             \n                                         \n         \n                                         \n                With:                    \n                                         \n         \n                                         \n                                    \n     E240                           \n                                    \n     SP               (C) 2009      \n                                         \n     \n     \n     \n                                                                                  \n                                                                                   \n              I.Saw.the.Devil.2010.PROPER.BDRip.XviD-EXViD                          \n                                                                                   \n                                                                                  \n     \n                                                                                               \nEXViD aims to iNTERNAL those releases which have been lost in the archives.\nEXViD aims to PRE non-internal releases which have poor sources and are likely skipped by others.\n &lt;a href=&quot;\nhttp://www.imdb.com/title/tt1588170/&quot; rel=&quot;nofollow&quot; target=&quot;_NEW&quot;&gt;\nhttp://www.imdb.com/title/tt1588170/&lt;/a&gt;\nSubtitles: English\nDate: 2011.08\n\nDirector: Jee-woon Kim\n\nGenres: Crime | Drama | Horror | Thriller\n\nPlot:\nKyung-chul (Choi Min-sik) is a dangerous psychopath who kills for pleasure. He has committed\ninfernal serial murders in diabolic ways that one cannot even imagine and his victims range\nfrom young women to even children. The police have chased him for a long time, but were unable\nto catch him. One day, Joo-yeon, daughter of a retired police chief becomes his prey and is\nfound dead in a horrific state. Her fiance Soo-hyun (Lee Byung-hun), a top secret agent,\ndecides to track down the murderer himself. He promises himself that he will do everything\nin his power to take bloody vengeance against the killer, even if it means that he must\nbecome a monster himself to get this monstrous and inhumane killer.\n\nCast:\nByung-hun Lee \t ... \t Kim Soo-hyeon\nMin-sik Choi \t ... \t Kyung-chul\nGook-hwan Jeon \t ... \t Squad Chief Jang\nHo-jin Jeon \t ... \t Section Chief Oh\nSan-ha Oh \t ... \t Joo-yeon\nYoon-seo Kim \t ... \t Se-yeon\n\nStats:\nFormat                           : AVI\nFormat/Info                      : Audio Video Interleave\nFile size                        : 1.37 GiB\nDuration                         : 2h 22mn\nOverall bit rate                 : 1 377 Kbps\nWriting application              : Nandub v1.0rc2\nWriting library                  : Nandub build 1852/release\n\nVideo\nID                               : 0\nFormat                           : MPEG-4 Visual\nFormat profile                   : Advanced Simple@L5\nFormat settings, BVOP            : 2\nFormat settings, QPel            : No\nFormat settings, GMC             : No warppoints\nFormat settings, Matrix          : Default (H.263)\nCodec ID                         : XVID\nCodec ID/Hint                    : XviD\nDuration                         : 2h 22mn\nBit rate                         : 1 243 Kbps\nWidth                            : 624 pixels\nHeight                           : 336 pixels\nDisplay aspect ratio             : 1.857\nFrame rate                       : 23.976 fps\nColor space                      : YUV\nChroma subsampling               : 4:2:0\nBit depth                        : 8 bits\nScan type                        : Progressive\nCompression mode                 : Lossy\nBits/(Pixel*Frame)               : 0.247\nStream size                      : 1.23 GiB (90%)\nWriting library                  : XviD 64\n\nAudio\nID                               : 1\nFormat                           : MPEG Audio\nFormat version                   : Version 1\nFormat profile                   : Layer 3\nMode                             : Joint stereo\nMode extension                   : MS Stereo\nCodec ID                         : 55\nCodec ID/Hint                    : MP3\nDuration                         : 2h 22mn\nBit rate mode                    : Variable\nBit rate                         : 121 Kbps\nNominal bit rate                 : 128 Kbps\nChannel(s)                       : 2 channels\nSampling rate                    : 48.0 KHz\nCompression mode                 : Lossy\nStream size                      : 123 MiB (9%)\nAlignment                        : Aligned on interleaves\nInterleave, duration             : 24 ms (0.58 video frame)\nInterleave, preload duration     : 145 ms\nWriting library                  : LAME3.98r\nEncoding settings                : -m j -V 4 -q 3 -lowpass 17 --abr 128\n\n\n\n\nRelease notes:\nI.Saw.The.Devil.2010.DVDRip.XviD-N3WS came with crappy fansubs. Proof included.\n\nenjoy!\n\nLooking for:\n75TB+ Archives\nDUTCH/FLEMiSH Archives\n                                                                                                    \nGreets: CRBS EPiSODE FiCO FLS iLS KLASSiGER LiPSYNC MADE NODLABS RUNNER SPRiNTER      \n   \n\n                                                                    ASCII DONE BY XX^NFO 2oo9","torrent":{"xt":"urn:btih:7a94ecc8b009ba94bef86b354a63c4e2efd20279","amp;dn":"I.Saw.the.Devil.2010.PROPER.BDRip.XviD-EXViD","amp;tr":["udp%3A%2F%2Ftracker.openbittorrent.com%3A80","udp%3A%2F%2Fopen.demonii.com%3A1337","udp%3A%2F%2Ftracker.coppersurfer.tk%3A6969","udp%3A%2F%2Fexodus.desync.com%3A6969"],"infoHash":"7a94ecc8b009ba94bef86b354a63c4e2efd20279","infoHashBuffer":{"type":"Buffer","data":[122,148,236,200,176,9,186,148,190,248,107,53,74,99,196,226,239,210,2,121]},"announce":[],"urlList":[]}}